# xmcd
#
# Track frame offsets:
#       150
#       39161
#       70317
#
# Disc length: 1472 seconds
#
# Revision: 0
# Processed by: cddbd v1.5.1PL0 Copyright (c) Steve Scherf et al.
# Submitted via: WaveLab 4.01
#
DISCID=1e05be03
DTITLE=Strange Fruit - EP
DYEAR=2005
DGENRE=Blues
TTITLE0=Reggae - It's Difficult
TTITLE1=Trashtalk
TTITLE2=Like A Laika
EXTD=
EXTT0=
EXTT1=
EXTT2=
PLAYORDER=
